# xmcd
#
# Track frame offsets:
#	150
#	10676
#	26624
#	38954
#	52923
#	69716
#	84882
#	95328
#	108331
#	122790
#	141042
#	155236
#	163716
#
# Disc length: 2403 seconds
#
# Revision: 1
# Processed by: cddbd v1.5.2PL0 Copyright (c) Steve Scherf et al.
# Submitted via: audiograbber 1.83.01
#
DISCID=a209610d
DTITLE=Munamies - Munamiehen Talvi 
DYEAR=2011
DGENRE=Pop
TTITLE0=Helle
TTITLE1=Munamiehen Joulu
TTITLE2=Hankipolkka
TTITLE3=Kädet Ilmaan
TTITLE4=Santa Lucia
TTITLE5=Lumilyhtyä Kohti
TTITLE6=Lumipallo
TTITLE7=Joulun Väri
TTITLE8=Yksinäinen Joulu
TTITLE9=Muna-asentoon
TTITLE10=Yhden Pallon Ukko
TTITLE11=Lumiukko On Bop
TTITLE12=Suuret Verhot Suljetaan
EXTD=TR.
EXTT0=
EXTT1=
EXTT2=
EXTT3=
EXTT4=
EXTT5=
EXTT6=
EXTT7=
EXTT8=
EXTT9=
EXTT10=
EXTT11=
EXTT12=
PLAYORDER=
